<svg xmlns="http://www.w3.org/2000/svg" width="192" height="192" viewBox="0 0 512 512">
  <rect width="512" height="512" rx="96" fill="#0a0a0a"/>
  <!-- Shield outline -->
  <path d="M256 72L120 136v120c0 88 58 170 136 192 78-22 136-104 136-192V136L256 72z" fill="none" stroke="#00ff41" stroke-width="16" stroke-linejoin="round"/>
  <!-- Bug body -->
  <ellipse cx="256" cy="280" rx="48" ry="64" fill="none" stroke="#00ff41" stroke-width="12"/>
  <!-- Bug head -->
  <circle cx="256" cy="200" r="28" fill="none" stroke="#00ff41" stroke-width="12"/>
  <!-- Bug legs left -->
  <line x1="208" y1="252" x2="172" y2="232" stroke="#00ff41" stroke-width="10" stroke-linecap="round"/>
  <line x1="208" y1="280" x2="168" y2="280" stroke="#00ff41" stroke-width="10" stroke-linecap="round"/>
  <line x1="208" y1="308" x2="172" y2="328" stroke="#00ff41" stroke-width="10" stroke-linecap="round"/>
  <!-- Bug legs right -->
  <line x1="304" y1="252" x2="340" y2="232" stroke="#00ff41" stroke-width="10" stroke-linecap="round"/>
  <line x1="304" y1="280" x2="344" y2="280" stroke="#00ff41" stroke-width="10" stroke-linecap="round"/>
  <line x1="304" y1="308" x2="340" y2="328" stroke="#00ff41" stroke-width="10" stroke-linecap="round"/>
  <!-- Bug antennae -->
  <line x1="240" y1="176" x2="220" y2="148" stroke="#00ff41" stroke-width="10" stroke-linecap="round"/>
  <line x1="272" y1="176" x2="292" y2="148" stroke="#00ff41" stroke-width="10" stroke-linecap="round"/>
  <!-- Slash through bug -->
  <line x1="200" y1="340" x2="312" y2="180" stroke="#00ff41" stroke-width="14" stroke-linecap="round" opacity="0.9"/>
</svg>
